<?xml version="1.0" standalone="no"?>
<!DOCTYPE svg PUBLIC "-//W3C//DTD SVG 20010904//EN"
 "http://www.w3.org/TR/2001/REC-SVG-20010904/DTD/svg10.dtd">
<svg version="1.0" xmlns="http://www.w3.org/2000/svg"
 width="185.000000pt" height="185.000000pt" viewBox="0 0 185.000000 185.000000"
 preserveAspectRatio="xMidYMid meet">

<g transform="translate(0.000000,185.000000) scale(0.100000,-0.100000)"
fill="#000000" stroke="none">
<path d="M857 1830 c-390 -62 -715 -353 -820 -735 -42 -151 -40 -353 4 -515
25 -93 94 -237 149 -310 58 -77 155 -175 225 -226 l59 -44 542 0 541 0 49 36
c64 48 156 137 205 197 l39 49 0 563 0 564 -49 58 c-144 172 -311 280 -526
339 -101 28 -315 40 -418 24z m306 -214 c266 -51 493 -236 593 -485 96 -236
58 -541 -90 -741 -167 -223 -416 -341 -690 -327 -131 7 -202 24 -313 78 -270
129 -443 405 -443 704 0 429 351 779 787 784 45 1 115 -5 156 -13z"/>
<path d="M981 1364 c-85 -8 -156 -16 -158 -18 -6 -6 -225 -1027 -221 -1031 2
-1 100 6 218 16 227 20 310 38 394 85 67 37 148 120 182 184 25 49 29 66 29
145 0 77 -3 95 -22 121 -20 28 -61 54 -107 69 -18 5 -17 7 10 21 106 53 157
227 95 327 -30 49 -106 84 -196 90 -38 3 -139 -1 -224 -9z m189 -234 c32 -32
11 -99 -40 -125 -39 -20 -120 -31 -120 -17 0 15 30 145 36 154 3 4 27 8 55 8
36 0 54 -5 69 -20z m-70 -390 c11 -11 20 -29 20 -41 0 -33 -29 -86 -57 -104
-22 -15 -132 -38 -141 -30 -6 5 31 170 41 183 16 21 114 15 137 -8z"/>
</g>
</svg>
