<?xml version="1.0" encoding="UTF-8"?>
<svg width="31" height="32" xmlns="http://www.w3.org/2000/svg" viewBox="0 0 31 32"><path d="m27.16 23.173-6.857-2.5v-2.53c2.412-2.05 3.772-5.036 3.714-8.157 0-.299-.017-.593-.04-.886V9.05C23.562 3.98 19.827 0 15.287 0c-4.342 0-7.944 3.65-8.61 8.406 0 .038-.013.073-.014.109-.067.487-.102.978-.105 1.47-.073 3.306 1.463 6.45 4.14 8.477v2.21L3.802 23.17c-2.286.81-3.806 2.93-3.802 5.304v2.32C0 31.46.553 32 1.236 32h28.528c.683 0 1.236-.54 1.236-1.206v-2.32c-.008-2.38-1.543-4.5-3.84-5.302zM15.287 2.413c2.919 0 5.371 2.436 6.058 5.713-1.687.188-2.76-.459-3.84-2.295a1.228 1.228 0 0 0-1.099-.608 1.241 1.241 0 0 0-1.072.648 5.794 5.794 0 0 1-4.552 2.174 5.072 5.072 0 0 1-1.498-.217c.778-3.126 3.172-5.414 6.003-5.414zM9.04 10.27c.574.129 1.16.193 1.748.19a9.22 9.22 0 0 0 5.548-2.032 5.561 5.561 0 0 0 4.457 2.156c.237 0 .48-.014.728-.038-.239 3.911-2.94 7.007-6.233 7.007-3.373.002-6.121-3.241-6.246-7.283H9.04zM28.53 29.584H2.476v-1.11c-.004-1.36.866-2.575 2.175-3.037l7.716-2.793c.485-.176.807-.627.807-1.132v-1.85c1.526.45 3.16.405 4.658-.127v1.977c0 .504.32.954.804 1.13l7.681 2.8c1.311.463 2.192 1.669 2.215 3.03l-.003 1.112z" fill="#3B3C40" fill-rule="nonzero"/></svg>